<svg width="38" height="38" viewBox="0 0 38 38" fill="none" xmlns="http://www.w3.org/2000/svg">
<path d="M30.0837 34.8333H7.91699C6.65721 34.8333 5.44903 34.3328 4.55824 33.442C3.66744 32.5513 3.16699 31.3431 3.16699 30.0833V4.74996C3.16699 4.33003 3.33381 3.92731 3.63074 3.63037C3.92767 3.33344 4.3304 3.16663 4.75033 3.16663H26.917C27.3369 3.16663 27.7396 3.33344 28.0366 3.63037C28.3335 3.92731 28.5003 4.33003 28.5003 4.74996V23.75H34.8337V30.0833C34.8337 31.3431 34.3332 32.5513 33.4424 33.442C32.5516 34.3328 31.3434 34.8333 30.0837 34.8333ZM28.5003 26.9166V30.0833C28.5003 30.5032 28.6671 30.9059 28.9641 31.2029C29.261 31.4998 29.6637 31.6666 30.0837 31.6666C30.5036 31.6666 30.9063 31.4998 31.2032 31.2029C31.5002 30.9059 31.667 30.5032 31.667 30.0833V26.9166H28.5003ZM25.3337 31.6666V6.33329H6.33366V30.0833C6.33366 30.5032 6.50047 30.9059 6.79741 31.2029C7.09434 31.4998 7.49707 31.6666 7.91699 31.6666H25.3337ZM9.50033 11.0833H22.167V14.25H9.50033V11.0833ZM9.50033 17.4166H22.167V20.5833H9.50033V17.4166ZM9.50033 23.75H17.417V26.9166H9.50033V23.75Z" fill="#1E1E1E"/>
</svg>
