<svg width="126" height="104" viewBox="0 0 126 104" fill="none" xmlns="http://www.w3.org/2000/svg">
<path d="M116.838 0.0360446C115.247 0.176842 113.6 0.851362 112.332 1.88279C111.959 2.18403 111.37 2.77996 111.075 3.14997C110.325 4.08971 109.71 5.36016 109.454 6.49964C109.294 7.21345 109.258 7.56381 109.258 8.3824C109.258 9.20099 109.294 9.55135 109.454 10.2652C109.713 11.4276 110.345 12.7177 111.121 13.6705C111.422 14.0438 112.018 14.6332 112.388 14.9279C113.328 15.6777 114.598 16.2933 115.738 16.5487C116.452 16.7091 116.802 16.7451 117.621 16.7451C118.439 16.7451 118.79 16.7091 119.504 16.5487C120.358 16.3588 121.478 15.8807 122.215 15.3928C123.489 14.5448 124.468 13.4315 125.139 12.0661C125.679 10.9626 125.945 9.91153 125.994 8.68364C126.082 6.40796 125.224 4.19776 123.613 2.54093C121.848 0.726936 119.376 -0.189887 116.838 0.0360446ZM118.652 0.929946C119.936 1.11659 121.098 1.59792 122.14 2.36739C122.559 2.67846 123.315 3.44138 123.636 3.8736C124.448 4.97051 124.92 6.15256 125.087 7.5147C125.139 7.94036 125.133 8.88665 125.07 9.34834C124.625 12.7275 121.96 15.3928 118.587 15.8316C118.132 15.8905 117.323 15.9003 116.851 15.848C114.851 15.6318 113.056 14.6626 111.795 13.1204C111.317 12.531 110.793 11.6208 110.564 10.9692C110.096 9.64631 109.988 8.22196 110.256 6.89257C110.482 5.77273 110.915 4.81007 111.606 3.8736C111.926 3.44138 112.683 2.67846 113.102 2.36739C114.173 1.575 115.447 1.06092 116.704 0.920123C116.874 0.900477 117.067 0.877557 117.13 0.871008C117.349 0.844813 118.328 0.884105 118.652 0.929946Z" fill="url(#paint0_linear_56_850)"/>
<path d="M121.288 11.6068C121.288 11.6376 121.28 11.6626 121.264 11.6858C121.248 11.7088 121.216 11.7281 121.162 11.7435C121.11 11.7569 121.035 11.7685 120.941 11.7762C120.846 11.7839 120.72 11.7878 120.564 11.7878C120.426 11.7878 120.313 11.7839 120.227 11.7762C120.141 11.7685 120.071 11.7569 120.017 11.7396C119.966 11.7223 119.926 11.6991 119.896 11.6684C119.866 11.6395 119.842 11.601 119.821 11.5568L118.883 9.83382C118.773 9.63748 118.657 9.45843 118.539 9.29483C118.42 9.13112 118.28 8.99068 118.116 8.87124C117.954 8.75191 117.76 8.66141 117.539 8.59408C117.319 8.52859 117.052 8.49585 116.742 8.49585H115.835V11.6068C115.835 11.6376 115.824 11.6626 115.8 11.6858C115.775 11.7088 115.738 11.7261 115.689 11.7396C115.638 11.7531 115.571 11.7646 115.485 11.7743C115.396 11.7839 115.288 11.7878 115.156 11.7878C115.024 11.7878 114.916 11.7839 114.828 11.7743C114.741 11.7646 114.671 11.7531 114.62 11.7396C114.566 11.7261 114.531 11.7088 114.51 11.6858C114.488 11.6646 114.477 11.6376 114.477 11.6068V4.84787C114.477 4.70156 114.531 4.59953 114.639 4.53992C114.747 4.48216 114.863 4.45322 114.984 4.45322H117.154C117.413 4.45322 117.626 4.45714 117.798 4.46671C117.968 4.47639 118.121 4.48792 118.258 4.4975C118.654 4.54764 119.002 4.62455 119.306 4.72854C119.608 4.83438 119.861 4.9672 120.066 5.12895C120.273 5.29071 120.426 5.47552 120.529 5.68535C120.631 5.89323 120.682 6.12416 120.682 6.37642C120.682 6.619 120.637 6.8384 120.545 7.0329C120.451 7.22532 120.319 7.39665 120.146 7.54491C119.971 7.69318 119.764 7.82208 119.521 7.93184C119.279 8.03964 119.01 8.1321 118.708 8.20715C118.878 8.261 119.029 8.32648 119.166 8.40731C119.303 8.48824 119.43 8.58636 119.548 8.69807C119.667 8.81163 119.78 8.94249 119.885 9.0888C119.99 9.23511 120.095 9.40067 120.2 9.58548L121.116 11.1949C121.189 11.3296 121.237 11.4258 121.256 11.4797C121.277 11.5337 121.288 11.576 121.288 11.6068ZM119.244 6.47454C119.244 6.18965 119.155 5.94707 118.975 5.74888C118.797 5.55243 118.498 5.41003 118.075 5.32334C117.943 5.29647 117.795 5.27907 117.631 5.26754C117.464 5.25601 117.249 5.25024 116.979 5.25024H115.835V7.71047H117.16C117.518 7.71047 117.828 7.67969 118.089 7.61801C118.347 7.55449 118.565 7.4679 118.738 7.35814C118.913 7.24654 119.039 7.11568 119.123 6.96545C119.204 6.81534 119.244 6.65174 119.244 6.47454Z" fill="url(#paint1_linear_56_850)"/>
<path fill-rule="evenodd" clip-rule="evenodd" d="M24.2692 0H75.3535L75.3704 0.0211883C76.2189 0.0298017 77.1448 0.0555411 78.0601 0.103558C80.0359 0.207018 81.9621 0.413937 83.9616 0.831538C85.9612 1.24904 88.0339 1.87713 89.9915 2.79836C91.9492 3.7195 93.7917 4.93389 95.3816 6.1851C96.9715 7.43622 98.3088 8.72427 99.6875 10.224C101.066 11.7236 102.486 13.435 103.515 15.4377C104.544 17.4402 105.181 19.7341 105.645 21.5364C106.109 23.3388 106.401 24.6495 106.537 26.4428C106.674 28.2361 106.656 30.5118 106.61 32.7055C106.564 34.8994 106.492 37.0111 106.291 38.595C106.091 40.179 105.763 41.2349 105.408 42.2907C105.053 43.3467 104.671 44.4027 104.18 45.5132C103.688 46.6238 103.087 47.7889 102.413 48.8903C101.74 49.9918 100.993 51.0295 100.292 51.9215C99.5915 52.8136 98.936 53.5601 98.0529 54.3521C97.1922 55.1241 96.115 55.9393 95.4711 56.2665L110.232 82.2549H51.2863L57.2293 71.2866H92.0548L86.0541 61.2772C80.6318 63.5703 65.81 62.1037 55.688 62.517L44.6372 82.2549H13.6102L30.9531 51.587H48.762L70.7877 12.8072L89.9934 46.6221C90.2468 46.3781 90.5043 46.1288 90.7793 45.8463C91.5285 45.0766 92.4074 44.0599 93.1329 42.9004C93.8583 41.7409 94.4302 40.4384 94.8538 39.0564C95.2774 37.6745 95.5528 36.2132 95.701 34.6352C95.8493 33.0574 95.8704 31.363 95.8228 29.7269C95.7751 28.0908 95.6586 26.513 95.415 25.2422C95.1715 23.9714 94.8009 23.0078 94.3984 22.0971C93.9961 21.1864 93.5618 20.3287 92.9475 19.3863C92.3334 18.4437 91.539 17.4165 90.7448 16.5852C89.9505 15.7539 89.1563 15.1186 88.2825 14.5097C87.4089 13.9007 86.4558 13.3183 85.5768 12.8947C84.6978 12.4712 83.8011 11.9877 82.9089 11.7042C82.0167 11.4208 80.9041 11.1296 80.1949 11.1296H43.1436L54.1523 31.3273L47.4611 41.9857L24.2692 0ZM61.9274 51.587L71.3001 34.8124L80.6728 51.587H61.9274ZM37.0331 62.5709H42.8238L38.0479 71.2866H32.2572L37.0331 62.5709ZM5.52115 99.231C5.52115 99.5623 5.44768 99.8604 5.29828 100.127C5.15125 100.392 4.94006 100.619 4.66254 100.807C4.38749 100.994 4.05066 101.139 3.64998 101.241C3.24919 101.344 2.77236 101.395 2.21513 101.395H1.19524V103.773C1.19524 103.801 1.18583 103.826 1.16445 103.845C1.14316 103.866 1.10989 103.881 1.06722 103.894C1.02217 103.906 0.962865 103.916 0.887024 103.925C0.808609 103.934 0.713857 103.937 0.59762 103.937C0.481384 103.937 0.386533 103.934 0.308217 103.925C0.232475 103.916 0.170793 103.906 0.125644 103.894C0.0782191 103.881 0.0474266 103.866 0.0284168 103.845C0.00940703 103.826 0 103.801 0 103.773V97.6721C0 97.5361 0.0497036 97.4385 0.14703 97.381C0.244257 97.3233 0.350989 97.2937 0.471879 97.2937H2.39533C2.58978 97.2937 2.77721 97.299 2.95513 97.3112C3.13295 97.3233 3.34404 97.3496 3.58582 97.3879C3.83027 97.428 4.0768 97.5013 4.33066 97.6076C4.58205 97.7157 4.79551 97.8483 4.97333 98.0052C5.14887 98.1621 5.28402 98.3435 5.37887 98.5492C5.47372 98.755 5.52115 98.9833 5.52115 99.231ZM4.26898 99.3008C4.26898 99.0305 4.20017 98.8055 4.06492 98.6242C3.9275 98.4446 3.75898 98.3085 3.55512 98.2196C3.35344 98.1325 3.14483 98.0749 2.93127 98.0522C2.71553 98.0279 2.50444 98.0157 2.30058 98.0157H1.19524V100.673H2.27444C2.63493 100.673 2.93612 100.638 3.17324 100.57C3.41285 100.502 3.61196 100.408 3.77562 100.286C3.93691 100.166 4.06027 100.021 4.14324 99.8517C4.22631 99.6826 4.26898 99.4996 4.26898 99.3008ZM19.5122 103.773C19.5122 103.801 19.5051 103.824 19.4909 103.845C19.4767 103.866 19.4483 103.883 19.4008 103.897C19.3557 103.909 19.2894 103.92 19.2063 103.927C19.1233 103.934 19.0118 103.937 18.8742 103.937C18.7532 103.937 18.6537 103.934 18.5778 103.927C18.5018 103.92 18.4402 103.909 18.3928 103.894C18.3478 103.878 18.3121 103.857 18.2861 103.829C18.26 103.803 18.2386 103.768 18.2196 103.728L17.3943 102.167C17.2971 101.99 17.1951 101.827 17.0908 101.679C16.9864 101.531 16.863 101.404 16.7184 101.296C16.5761 101.187 16.4053 101.106 16.2109 101.044C16.0164 100.985 15.7817 100.956 15.5089 100.956H14.7096V103.773C14.7096 103.801 14.7002 103.824 14.6788 103.845C14.6575 103.866 14.6242 103.881 14.5816 103.894C14.5365 103.906 14.4772 103.916 14.4014 103.925C14.323 103.934 14.2282 103.937 14.112 103.937C13.9957 103.937 13.9009 103.934 13.8226 103.925C13.7468 103.916 13.6851 103.906 13.64 103.894C13.5926 103.881 13.5618 103.866 13.5428 103.845C13.5238 103.826 13.5144 103.801 13.5144 103.773V97.6512C13.5144 97.5187 13.5618 97.4263 13.6565 97.3723C13.7515 97.3199 13.8535 97.2937 13.9602 97.2937H15.8717C16.0994 97.2937 16.2867 97.2972 16.4386 97.3059C16.588 97.3146 16.7231 97.3251 16.844 97.3338C17.1927 97.3792 17.4987 97.449 17.7668 97.5431C18.0323 97.639 18.2553 97.7594 18.4355 97.9058C18.6181 98.0522 18.7532 98.2196 18.8435 98.4097C18.9336 98.598 18.9786 98.8073 18.9786 99.0357C18.9786 99.2554 18.9383 99.4542 18.8576 99.6303C18.7747 99.8047 18.6585 99.9598 18.5067 100.094C18.3525 100.228 18.17 100.345 17.9565 100.445C17.7429 100.542 17.5058 100.626 17.2403 100.694C17.3896 100.743 17.5223 100.802 17.6434 100.875C17.7643 100.948 17.8758 101.037 17.9802 101.139C18.0845 101.241 18.184 101.36 18.2766 101.493C18.3691 101.625 18.4616 101.775 18.5541 101.943L19.3605 103.4C19.4245 103.522 19.4672 103.609 19.4838 103.658C19.5028 103.707 19.5122 103.745 19.5122 103.773ZM17.712 99.1246C17.712 98.8665 17.6338 98.6468 17.4749 98.4672C17.3185 98.2894 17.0552 98.1603 16.6828 98.0819C16.5667 98.0575 16.4362 98.0418 16.2916 98.0313C16.1445 98.0208 15.9548 98.0157 15.7175 98.0157H14.7096V100.244H15.8765C16.192 100.244 16.4646 100.216 16.6947 100.16C16.9225 100.103 17.1144 100.024 17.2662 99.925C17.4204 99.8239 17.532 99.7053 17.6054 99.5693C17.6765 99.4332 17.712 99.285 17.712 99.1246ZM34.931 100.523C34.931 101.058 34.8457 101.54 34.6749 101.969C34.5017 102.398 34.2456 102.762 33.9066 103.064C33.5649 103.364 33.1381 103.595 32.6234 103.758C32.1087 103.92 31.5088 104 30.8234 104C30.1474 104 29.5639 103.927 29.0707 103.779C28.575 103.63 28.1694 103.414 27.8469 103.132C27.5244 102.849 27.2849 102.499 27.1284 102.08C26.9695 101.662 26.8911 101.18 26.8911 100.636C26.8911 100.115 26.9764 99.6407 27.1472 99.2153C27.3204 98.7898 27.5765 98.4289 27.9204 98.1307C28.262 97.8343 28.6912 97.6041 29.2059 97.442C29.7181 97.2798 30.3182 97.1996 31.006 97.1996C31.6677 97.1996 32.2439 97.2729 32.7349 97.4193C33.2259 97.5658 33.6362 97.7785 33.961 98.0592C34.2883 98.3399 34.5326 98.6869 34.6914 99.102C34.8503 99.5152 34.931 99.9895 34.931 100.523ZM33.6646 100.584C33.6646 100.211 33.6196 99.8622 33.5294 99.5413C33.4393 99.2206 33.2899 98.9416 33.0788 98.7044C32.8677 98.469 32.5879 98.2842 32.2369 98.1516C31.8834 98.0191 31.4495 97.9528 30.9325 97.9528C30.4131 97.9528 29.9791 98.0244 29.628 98.1674C29.277 98.3103 28.99 98.5004 28.7719 98.7375C28.5513 98.9764 28.3948 99.2536 28.2999 99.5727C28.2051 99.8901 28.1575 100.223 28.1575 100.574C28.1575 100.962 28.2027 101.318 28.2905 101.644C28.3781 101.972 28.5251 102.253 28.7339 102.49C28.9402 102.725 29.2202 102.908 29.5688 103.039C29.9174 103.17 30.3561 103.236 30.8826 103.236C31.4067 103.236 31.8456 103.165 32.2013 103.022C32.557 102.879 32.8439 102.687 33.0622 102.443C33.278 102.2 33.4346 101.918 33.5271 101.599C33.6196 101.28 33.6646 100.942 33.6646 100.584ZM47.7126 97.6703C47.7126 97.7349 47.7079 97.7907 47.6985 97.8378C47.6889 97.8849 47.6723 97.9232 47.6509 97.9528C47.6272 97.9807 47.6012 98.0034 47.5703 98.0157C47.5396 98.0295 47.5087 98.0366 47.4754 98.0366H44.1835V100.286H47.2953C47.3284 100.286 47.3593 100.291 47.3901 100.303C47.4209 100.316 47.447 100.335 47.4707 100.363C47.492 100.391 47.5087 100.427 47.5182 100.472C47.5277 100.52 47.5324 100.577 47.5324 100.649C47.5324 100.715 47.5277 100.771 47.5182 100.816C47.5087 100.861 47.492 100.9 47.4707 100.929C47.447 100.957 47.4209 100.98 47.3901 100.996C47.3593 101.011 47.3284 101.018 47.2953 101.018H44.1835V103.773C44.1835 103.798 44.1741 103.82 44.1551 103.843C44.1362 103.864 44.1053 103.881 44.0579 103.894C44.0128 103.906 43.9512 103.916 43.8776 103.925C43.8041 103.934 43.7069 103.937 43.5859 103.937C43.4744 103.937 43.3797 103.934 43.3013 103.925C43.2231 103.916 43.1591 103.906 43.1139 103.894C43.0666 103.881 43.0357 103.864 43.0167 103.843C42.9978 103.82 42.9883 103.798 42.9883 103.773V97.6512C42.9883 97.5187 43.0357 97.4263 43.1306 97.3723C43.2254 97.3199 43.3274 97.2937 43.4342 97.2937H47.4754C47.5087 97.2937 47.5396 97.3007 47.5703 97.3146C47.6012 97.3269 47.6272 97.3496 47.6509 97.381C47.6723 97.4106 47.6889 97.4507 47.6985 97.4995C47.7079 97.5483 47.7126 97.6059 47.7126 97.6703ZM62.4223 103.595C62.4579 103.67 62.4793 103.73 62.4815 103.777C62.484 103.822 62.465 103.857 62.4294 103.881C62.3914 103.904 62.3297 103.92 62.2444 103.927C62.159 103.934 62.0453 103.937 61.9004 103.937C61.7583 103.937 61.6421 103.935 61.5567 103.93C61.4712 103.925 61.4073 103.916 61.3621 103.904C61.3172 103.892 61.2863 103.876 61.2649 103.855C61.2436 103.834 61.2246 103.81 61.2057 103.779L60.4349 102.169H56.6971L55.9595 103.758C55.9453 103.789 55.9286 103.815 55.9049 103.838C55.8813 103.861 55.8481 103.878 55.803 103.894C55.7603 103.909 55.6962 103.92 55.6157 103.927C55.535 103.934 55.4307 103.937 55.3002 103.937C55.1649 103.937 55.0559 103.934 54.9706 103.925C54.8851 103.916 54.8235 103.901 54.7904 103.876C54.7546 103.852 54.7381 103.817 54.7406 103.772C54.7429 103.724 54.7618 103.665 54.7998 103.59L57.8141 97.4472C57.8331 97.4088 57.8593 97.3774 57.8877 97.3547C57.9185 97.3304 57.9612 97.3112 58.0206 97.299C58.0774 97.285 58.151 97.2745 58.2434 97.2693C58.3335 97.2641 58.4474 97.2624 58.5873 97.2624C58.7344 97.2624 58.8577 97.2641 58.9549 97.2693C59.0521 97.2745 59.1305 97.285 59.1897 97.299C59.2513 97.3112 59.2965 97.3321 59.3298 97.3565C59.3628 97.3826 59.389 97.414 59.4055 97.4507L62.4223 103.595ZM58.5518 98.1726H58.5446L56.9959 101.468H60.1217L58.5518 98.1726ZM76.0908 102.975C76.0908 103.029 76.0884 103.076 76.0837 103.118C76.0789 103.158 76.0718 103.193 76.0599 103.224C76.0482 103.254 76.0339 103.282 76.0149 103.306C75.996 103.329 75.9628 103.358 75.9177 103.391C75.8702 103.426 75.773 103.479 75.626 103.548C75.4765 103.618 75.2916 103.686 75.071 103.752C74.8504 103.819 74.5991 103.874 74.3144 103.92C74.0275 103.967 73.7168 103.99 73.3777 103.99C72.7942 103.99 72.2653 103.918 71.7957 103.775C71.3262 103.632 70.923 103.421 70.5933 103.14C70.2613 102.861 70.0052 102.516 69.8273 102.106C69.6494 101.695 69.5593 101.222 69.5593 100.687C69.5593 100.138 69.6565 99.6495 69.8486 99.2188C70.0408 98.7898 70.3112 98.4254 70.6598 98.1273C71.0084 97.8291 71.4234 97.6023 71.9097 97.4454C72.3933 97.2885 72.9317 97.2101 73.52 97.2101C73.7808 97.2101 74.0346 97.2275 74.2789 97.2624C74.5256 97.299 74.7532 97.3426 74.962 97.3966C75.1705 97.4507 75.3556 97.5134 75.5191 97.5849C75.6805 97.6547 75.7944 97.714 75.856 97.7594C75.92 97.8046 75.9603 97.8395 75.9794 97.8639C75.9984 97.8866 76.0126 97.9145 76.0244 97.9477C76.0363 97.9807 76.0457 98.0191 76.0528 98.0627C76.0599 98.108 76.0624 98.1603 76.0624 98.2214C76.0624 98.2911 76.0576 98.3486 76.0482 98.3958C76.0388 98.4446 76.0244 98.4847 76.0055 98.5178C75.9889 98.5492 75.9652 98.5736 75.939 98.5893C75.9154 98.6051 75.8821 98.612 75.8466 98.612C75.7801 98.612 75.69 98.5788 75.5714 98.5126C75.4552 98.4464 75.3058 98.3731 75.1208 98.2929C74.9359 98.2127 74.7128 98.1394 74.4496 98.0732C74.184 98.0069 73.8686 97.9738 73.5009 97.9738C73.0978 97.9738 72.7325 98.0331 72.4052 98.1499C72.0756 98.2684 71.7933 98.4411 71.5609 98.6695C71.3285 98.8979 71.1459 99.1769 71.0178 99.5065C70.8898 99.8361 70.8258 100.213 70.8258 100.635C70.8258 101.055 70.8875 101.426 71.0107 101.749C71.134 102.071 71.312 102.342 71.5421 102.558C71.772 102.774 72.0566 102.938 72.3911 103.05C72.7279 103.16 73.1073 103.215 73.5317 103.215C73.89 103.215 74.2053 103.182 74.4733 103.118C74.7414 103.053 74.969 102.982 75.1564 102.901C75.3462 102.821 75.5003 102.75 75.6212 102.685C75.7446 102.621 75.8395 102.588 75.9083 102.588C75.9413 102.588 75.9699 102.593 75.9936 102.603C76.0173 102.614 76.0339 102.633 76.0482 102.661C76.0624 102.69 76.0743 102.731 76.0814 102.781C76.0884 102.832 76.0908 102.896 76.0908 102.975ZM89.4702 97.6703C89.4702 97.7349 89.4653 97.7907 89.4559 97.8378C89.4463 97.8849 89.4321 97.9232 89.4107 97.9528C89.3895 97.9807 89.3658 98.0034 89.3349 98.0157C89.3041 98.0295 89.2708 98.0366 89.2353 98.0366H86.7095V103.773C86.7095 103.801 86.7 103.824 86.6809 103.845C86.662 103.866 86.6312 103.881 86.5837 103.894C86.5388 103.906 86.4771 103.916 86.4012 103.925C86.3228 103.934 86.2279 103.937 86.1117 103.937C86.0004 103.937 85.9054 103.934 85.8272 103.925C85.749 103.916 85.6848 103.906 85.6399 103.894C85.5923 103.881 85.5615 103.866 85.5425 103.845C85.5236 103.824 85.5141 103.801 85.5141 103.773V98.0366H82.9883C82.9528 98.0366 82.9195 98.0295 82.8887 98.0157C82.8578 98.0034 82.8342 97.9807 82.8151 97.9528C82.7986 97.9232 82.782 97.8849 82.7702 97.8378C82.7583 97.7907 82.7535 97.7349 82.7535 97.6703C82.7535 97.6059 82.7583 97.5483 82.7702 97.4995C82.782 97.4507 82.7986 97.4106 82.8151 97.381C82.8342 97.3496 82.8578 97.3269 82.8887 97.3146C82.9195 97.3007 82.9528 97.2937 82.9883 97.2937H89.2353C89.2708 97.2937 89.3041 97.3007 89.3349 97.3146C89.3658 97.3269 89.3895 97.3496 89.4107 97.381C89.4321 97.4106 89.4463 97.4507 89.4559 97.4995C89.4653 97.5483 89.4702 97.6059 89.4702 97.6703ZM98.1272 103.773C98.1272 103.801 98.1178 103.826 98.0988 103.845C98.0798 103.866 98.049 103.881 98.0016 103.894C97.9564 103.906 97.8947 103.916 97.819 103.925C97.7406 103.934 97.6458 103.937 97.5296 103.937C97.4181 103.937 97.3233 103.934 97.2449 103.925C97.1667 103.916 97.1027 103.906 97.0576 103.894C97.0102 103.881 96.9794 103.866 96.9604 103.845C96.9414 103.826 96.932 103.801 96.932 103.773V97.4263C96.932 97.3984 96.9414 97.3739 96.9628 97.3547C96.9841 97.3338 97.0196 97.3182 97.0671 97.3059C97.1168 97.2937 97.1785 97.2833 97.2544 97.2745C97.3303 97.2658 97.4228 97.2624 97.5296 97.2624C97.6458 97.2624 97.7406 97.2658 97.819 97.2745C97.8947 97.2833 97.9564 97.2937 98.0016 97.3059C98.049 97.3182 98.0798 97.3338 98.0988 97.3547C98.1178 97.3739 98.1272 97.3984 98.1272 97.4263V103.773ZM110.314 103.752C110.295 103.791 110.268 103.822 110.235 103.845C110.204 103.869 110.159 103.888 110.1 103.901C110.043 103.915 109.97 103.925 109.877 103.93C109.787 103.935 109.673 103.937 109.533 103.937C109.431 103.937 109.343 103.937 109.268 103.935C109.189 103.934 109.125 103.929 109.068 103.922C109.014 103.915 108.966 103.908 108.926 103.899C108.886 103.89 108.853 103.88 108.827 103.866C108.798 103.852 108.777 103.836 108.76 103.817C108.743 103.798 108.729 103.775 108.715 103.749L105.774 97.6041C105.739 97.5292 105.72 97.4699 105.717 97.4227C105.715 97.3774 105.734 97.3426 105.774 97.3182C105.817 97.2955 105.883 97.2798 105.976 97.2729C106.068 97.2658 106.194 97.2624 106.353 97.2624C106.481 97.2624 106.585 97.2641 106.661 97.2693C106.737 97.2745 106.796 97.285 106.839 97.299C106.879 97.3112 106.91 97.3304 106.932 97.3513C106.953 97.3739 106.972 97.4019 106.991 97.4367L109.569 103.003H109.583L112.092 97.4472C112.104 97.4088 112.121 97.3774 112.14 97.3547C112.159 97.3304 112.192 97.3112 112.237 97.299C112.284 97.285 112.348 97.2745 112.431 97.2693C112.514 97.2641 112.626 97.2624 112.766 97.2624C112.908 97.2624 113.022 97.2658 113.105 97.2745C113.188 97.2833 113.245 97.299 113.276 97.3233C113.306 97.3478 113.318 97.3827 113.311 97.428C113.304 97.4751 113.283 97.5344 113.245 97.6094L110.314 103.752ZM125.924 103.541C125.924 103.604 125.92 103.658 125.91 103.704C125.901 103.749 125.884 103.787 125.863 103.819C125.839 103.85 125.813 103.871 125.782 103.885C125.751 103.899 125.718 103.906 125.68 103.906H121.361C121.255 103.906 121.153 103.88 121.058 103.827C120.963 103.773 120.915 103.681 120.915 103.548V97.6512C120.915 97.5187 120.963 97.4263 121.058 97.3723C121.153 97.3199 121.255 97.2937 121.361 97.2937H125.63C125.668 97.2937 125.701 97.3007 125.732 97.3146C125.763 97.3286 125.787 97.3496 125.806 97.381C125.822 97.4124 125.839 97.4507 125.851 97.496C125.863 97.5414 125.867 97.5989 125.867 97.6669C125.867 97.7297 125.863 97.7819 125.851 97.8291C125.839 97.8744 125.822 97.9127 125.806 97.9424C125.787 97.9703 125.761 97.9912 125.732 98.0052C125.701 98.0191 125.668 98.0261 125.63 98.0261H122.111V100.098H125.132C125.17 100.098 125.203 100.105 125.234 100.12C125.263 100.136 125.289 100.157 125.31 100.185C125.331 100.213 125.346 100.249 125.355 100.296C125.365 100.345 125.369 100.401 125.369 100.466C125.369 100.528 125.365 100.581 125.355 100.624C125.346 100.67 125.331 100.704 125.31 100.732C125.289 100.76 125.263 100.779 125.234 100.792C125.203 100.804 125.17 100.809 125.132 100.809H122.111V103.174H125.68C125.718 103.174 125.751 103.18 125.782 103.194C125.813 103.208 125.839 103.229 125.863 103.257C125.884 103.287 125.901 103.325 125.91 103.371C125.92 103.416 125.924 103.473 125.924 103.541Z" fill="url(#paint2_linear_56_850)"/>
<defs>
<linearGradient id="paint0_linear_56_850" x1="97.7666" y1="12.8065" x2="26.0779" y2="69.4517" gradientUnits="userSpaceOnUse">
<stop stop-color="#AB803B"/>
<stop offset="0.235294" stop-color="#CDB14F"/>
<stop offset="0.490196" stop-color="#F0E263"/>
<stop offset="0.733333" stop-color="#D9B84A"/>
<stop offset="1" stop-color="#C28D31"/>
</linearGradient>
<linearGradient id="paint1_linear_56_850" x1="97.7666" y1="12.8065" x2="26.0779" y2="69.4517" gradientUnits="userSpaceOnUse">
<stop stop-color="#AB803B"/>
<stop offset="0.235294" stop-color="#CDB14F"/>
<stop offset="0.490196" stop-color="#F0E263"/>
<stop offset="0.733333" stop-color="#D9B84A"/>
<stop offset="1" stop-color="#C28D31"/>
</linearGradient>
<linearGradient id="paint2_linear_56_850" x1="97.7666" y1="12.8065" x2="26.0779" y2="69.4517" gradientUnits="userSpaceOnUse">
<stop stop-color="#AB803B"/>
<stop offset="0.235294" stop-color="#CDB14F"/>
<stop offset="0.490196" stop-color="#F0E263"/>
<stop offset="0.733333" stop-color="#D9B84A"/>
<stop offset="1" stop-color="#C28D31"/>
</linearGradient>
</defs>
</svg>
